<?xml version="1.0" standalone="no"?>
<!DOCTYPE svg PUBLIC "-//W3C//DTD SVG 20010904//EN"
 "http://www.w3.org/TR/2001/REC-SVG-20010904/DTD/svg10.dtd">
<svg version="1.0" xmlns="http://www.w3.org/2000/svg"
 width="500.000000pt" height="500.000000pt" viewBox="0 0 500.000000 500.000000"
 preserveAspectRatio="xMidYMid meet">
<metadata>
Created by potrace 1.14, written by Peter Selinger 2001-2017
</metadata>
<g transform="translate(0.000000,500.000000) scale(0.100000,-0.100000)"
fill="#000000" stroke="none">
<path d="M1926 4734 c-89 -21 -173 -71 -251 -149 -102 -102 -157 -217 -170
-355 -8 -77 -25 -202 -31 -222 -3 -10 -13 -18 -22 -18 -14 0 -273 -58 -332
-74 -155 -42 -366 -135 -447 -197 -93 -70 -126 -149 -95 -229 28 -72 192 -181
357 -238 70 -24 226 -68 270 -76 17 -3 73 -14 125 -25 52 -11 115 -23 140 -26
25 -3 52 -8 60 -10 8 -2 39 -7 69 -10 30 -4 61 -8 70 -10 14 -2 48 -6 186 -20
250 -26 1152 -27 1291 -1 17 3 64 9 189 22 22 2 56 6 75 9 19 3 49 7 65 10
272 36 560 113 730 196 345 167 309 356 -100 530 -97 41 -360 114 -502 139
l-72 13 -7 41 c-3 23 -8 48 -9 56 -2 8 -6 49 -10 90 -12 131 -41 224 -100 314
-67 105 -180 193 -295 231 -73 24 -209 29 -285 9 -33 -9 -67 -17 -75 -19 -8
-2 -34 -8 -57 -14 -144 -39 -260 -33 -473 22 -107 28 -203 32 -294 11z m1636
-886 c-7 -7 -12 -8 -12 -2 0 6 3 14 7 17 3 4 9 5 12 2 2 -3 -1 -11 -7 -17z"/>
<path d="M1233 3028 c-26 -13 -53 -73 -46 -107 2 -14 30 -52 62 -86 31 -34 65
-79 75 -100 18 -38 21 -51 30 -135 15 -140 50 -251 97 -311 36 -45 131 -96
223 -119 85 -22 301 -20 381 3 154 44 250 141 355 362 32 66 64 125 71 131 8
5 28 11 44 13 43 3 66 -26 110 -137 80 -199 194 -326 332 -368 85 -26 251 -36
360 -21 96 13 213 64 256 112 53 59 98 199 112 345 10 106 32 167 76 215 38
41 44 57 40 117 -2 39 -40 78 -76 80 -46 1 -401 -11 -482 -17 -149 -11 -216
-25 -418 -85 -159 -48 -224 -58 -342 -53 -98 4 -124 9 -303 63 -157 48 -193
57 -255 66 -27 3 -59 8 -70 10 -25 5 -145 12 -345 19 -85 3 -180 8 -210 10
-30 2 -65 -1 -77 -7z m622 -102 c39 -4 84 -9 100 -11 312 -53 402 -119 394
-289 -9 -173 -125 -338 -279 -397 -193 -73 -491 -21 -583 103 -34 47 -46 88
-54 192 -18 235 12 312 143 373 42 19 184 45 204 37 3 -1 37 -5 75 -8z m1519
-10 c93 -15 179 -76 215 -151 28 -59 29 -166 6 -331 -15 -107 -82 -172 -220
-216 -56 -17 -95 -22 -195 -22 -132 -1 -148 1 -220 29 -155 61 -272 243 -272
422 0 98 53 170 152 205 96 35 161 48 315 64 27 3 51 6 52 8 5 4 125 -1 167
-8z"/>
<path d="M1369 2198 c-15 -50 -12 -373 5 -503 3 -22 8 -62 12 -90 16 -139 71
-350 111 -429 l15 -29 19 29 c10 16 19 35 19 43 0 21 13 4 17 -22 18 -124 126
-326 245 -458 39 -43 138 -129 148 -129 6 0 15 12 21 27 l10 27 29 -52 c72
-133 197 -257 332 -334 132 -74 186 -70 333 27 125 83 220 182 285 298 31 55
33 57 44 36 6 -12 16 -24 22 -26 6 -2 52 36 102 84 136 133 241 306 282 467
l17 70 18 -37 c14 -31 35 -57 35 -45 0 2 15 48 34 104 19 55 37 111 40 124 3
14 12 57 20 95 8 39 18 93 21 120 4 28 8 61 10 74 14 83 26 460 17 509 -6 30
-40 29 -52 -2 -5 -13 -12 -44 -15 -67 -4 -24 -11 -64 -17 -89 -5 -25 -12 -56
-14 -70 -11 -53 -58 -178 -89 -235 -34 -61 -73 -103 -133 -145 -36 -24 -49
-22 -34 7 12 23 22 93 13 93 -4 0 -13 -15 -19 -34 -19 -53 -96 -132 -171 -175
-78 -46 -109 -78 -146 -146 -51 -97 -154 -167 -298 -205 -96 -25 -264 -21
-355 9 -130 42 -207 100 -261 195 -39 67 -92 120 -149 146 -65 31 -154 125
-175 185 l-18 50 5 -50 c3 -27 9 -61 12 -74 l7 -23 -29 18 c-71 44 -106 80
-141 142 -58 104 -97 231 -123 405 -9 61 -23 87 -46 87 -8 0 -14 -1 -15 -2z"/>
</g>
</svg>
